<svg xmlns="http://www.w3.org/2000/svg" xmlns:xlink="http://www.w3.org/1999/xlink" width="375" height="812" viewBox="0 0 375 812">
  <defs>
    <style>
      .cls-1 {
        clip-path: url(#clip-Profile_49);
      }

      .cls-2 {
        fill: url(#pattern);
      }

      .cls-10, .cls-3, .cls-6, .cls-7, .cls-8 {
        fill: #fff;
      }

      .cls-15, .cls-3, .cls-9 {
        fill-rule: evenodd;
      }

      .cls-4 {
        opacity: 0;
      }

      .cls-12, .cls-18, .cls-5 {
        fill: none;
      }

      .cls-5 {
        stroke: #fff;
      }

      .cls-6 {
        font-size: 13px;
        font-family: Inter-Italic, Inter;
        font-style: italic;
        opacity: 0.6;
      }

      .cls-10, .cls-11, .cls-16, .cls-7 {
        font-size: 16px;
      }

      .cls-7 {
        font-family: Inter-SemiBold, Inter;
        font-weight: 600;
      }

      .cls-10 {
        font-family: Inter-Regular, Inter;
      }

      .cls-11 {
        font-family: Inter-Medium, Inter;
        font-weight: 500;
      }

      .cls-13, .cls-15, .cls-16 {
        fill: #df5655;
      }

      .cls-14 {
        font-size: 20px;
        font-family: Comfortaa-Bold, Comfortaa;
      }

      .cls-14, .cls-16 {
        font-weight: 700;
      }

      .cls-16 {
        font-family: Inter-Bold, Inter;
      }

      .cls-17, .cls-19 {
        stroke: none;
      }

      .cls-19 {
        fill: #df5655;
      }

      .cls-20 {
        filter: url(#Rectangle_199);
      }

      .cls-21 {
        filter: url(#Rectangle_309);
      }

      .cls-22 {
        filter: url(#Rectangle_308);
      }
    </style>
    <pattern id="pattern" preserveAspectRatio="xMidYMid slice" width="100%" height="100%" viewBox="0 0 1080 701">
      <image width="1080" height="701" xlink:href="Profile%20-%2049-image.jpg"/>
    </pattern>
    <filter id="Rectangle_308" x="12" y="96" width="352" height="466" filterUnits="userSpaceOnUse">
      <feOffset dy="3" input="SourceAlpha"/>
      <feGaussianBlur stdDeviation="3" result="blur"/>
      <feFlood flood-opacity="0.161"/>
      <feComposite operator="in" in2="blur"/>
      <feComposite in="SourceGraphic"/>
    </filter>
    <filter id="Rectangle_309" x="30" y="297" width="316" height="130" filterUnits="userSpaceOnUse">
      <feOffset dy="3" input="SourceAlpha"/>
      <feGaussianBlur stdDeviation="3" result="blur-2"/>
      <feFlood flood-opacity="0.161"/>
      <feComposite operator="in" in2="blur-2"/>
      <feComposite in="SourceGraphic"/>
    </filter>
    <filter id="Rectangle_199" x="-4.5" y="-2.5" width="384" height="73" filterUnits="userSpaceOnUse">
      <feOffset dy="2" input="SourceAlpha"/>
      <feGaussianBlur stdDeviation="1.5" result="blur-3"/>
      <feFlood flood-opacity="0.161"/>
      <feComposite operator="in" in2="blur-3"/>
      <feComposite in="SourceGraphic"/>
    </filter>
    <clipPath id="clip-Profile_49">
      <rect width="375" height="812"/>
    </clipPath>
  </defs>
  <g id="Profile_49" data-name="Profile – 49" class="cls-1">
    <rect class="cls-8" width="375" height="812"/>
    <g id="tamtrsng" transform="translate(21 102)">
      <g id="Group_173" data-name="Group 173">
        <rect id="Rectangle_274" data-name="Rectangle 274" class="cls-2" width="334" height="448" rx="7"/>
        <g id="Group_167" data-name="Group 167" transform="translate(11 10)">
          <circle id="Ellipse_84" data-name="Ellipse 84" cx="13" cy="13" r="13"/>
          <path id="activity" class="cls-3" d="M2.057,15.428a1.029,1.029,0,1,1-2.057,0V4.114a1.029,1.029,0,1,1,2.057,0Zm2.057,0V6.171a1.029,1.029,0,1,1,2.057,0v9.257a1.029,1.029,0,1,1-2.057,0Zm4.114-14.4a1.029,1.029,0,0,1,2.057,0v14.4a1.029,1.029,0,1,1-2.057,0Z" transform="translate(22.228 7.857) rotate(90)"/>
        </g>
      </g>
      <g id="Group_172" data-name="Group 172" class="cls-4">
        <g id="Group_170" data-name="Group 170">
          <g class="cls-22" transform="matrix(1, 0, 0, 1, -21, -102)">
            <rect id="Rectangle_308-2" data-name="Rectangle 308" width="334" height="448" rx="6" transform="translate(21 102)"/>
          </g>
          <g class="cls-21" transform="matrix(1, 0, 0, 1, -21, -102)">
            <g id="Rectangle_309-2" data-name="Rectangle 309" class="cls-5" transform="translate(39 303)">
              <rect class="cls-17" width="298" height="112" rx="6"/>
              <rect class="cls-18" x="0.5" y="0.5" width="297" height="111" rx="5.5"/>
            </g>
          </g>
          <text id="Chia_sẻ_tâm_trạng" data-name="Chia sẻ tâm trạng" class="cls-6" transform="translate(29 211)"><tspan x="0" y="0">Chia sẻ tâm trạng</tspan></text>
          <text id="Save" class="cls-7" transform="translate(148 372)"><tspan x="0" y="0">Save</tspan></text>
        </g>
        <g id="Group_171" data-name="Group 171" transform="translate(292 301.298)">
          <circle id="Ellipse_95" data-name="Ellipse 95" class="cls-8" cx="7" cy="7" r="7" transform="translate(0 -0.298)"/>
          <path id="close" class="cls-9" d="M2.691,3.364,0,.673.673,0,3.364,2.691,6.055,0l.673.673L4.037,3.364,6.728,6.056l-.673.673L3.364,4.037.672,6.728,0,6.055Z" transform="translate(10.364 3.648) rotate(90)"/>
        </g>
      </g>
    </g>
    <rect id="Rectangle_310" data-name="Rectangle 310" class="cls-8" width="65" height="29" rx="6" transform="translate(284 108)"/>
    <path id="camera" class="cls-3" d="M6.412,21.711A1.912,1.912,0,0,1,4.5,19.8V6.412A1.912,1.912,0,0,1,6.412,4.5H19.8a1.912,1.912,0,0,1,1.912,1.912V19.8A1.912,1.912,0,0,1,19.8,21.711Zm11.474-15.3V8.325H19.8V6.412ZM13.105,17.886a4.781,4.781,0,1,0-4.781-4.781A4.781,4.781,0,0,0,13.105,17.886Zm0-1.912a2.868,2.868,0,1,0-2.868-2.868A2.868,2.868,0,0,0,13.105,15.974Z" transform="translate(285.61 109.395)"/>
    <text id="Đổi" class="cls-10" transform="translate(314 128)"><tspan x="0" y="0">Đổi</tspan></text>
    <text id="Hãy_mở_ra_cuộc_trò_chuyện_thông_qua_những_bức_ảnh_và_tâm_trạng." data-name="Hãy mở ra cuộc trò chuyện thông qua 
những bức ảnh và tâm trạng." class="cls-11" transform="translate(186 688)"><tspan x="-145.347" y="0">Hãy mở ra cuộc trò chuyện thông qua </tspan><tspan x="-110.116" y="20">những bức ảnh và tâm trạng.</tspan></text>
    <g id="Path_68" data-name="Path 68" class="cls-12" transform="translate(21 658)">
      <path class="cls-17" d="M7,0H327a7,7,0,0,1,7,7V60a7,7,0,0,1-7,7H7a7,7,0,0,1-7-7V7A7,7,0,0,1,7,0Z"/>
      <path class="cls-19" d="M 7 1 C 3.69158935546875 1 1 3.691581726074219 1 7 L 1 60 C 1 63.30841827392578 3.69158935546875 66 7 66 L 327 66 C 330.3084106445313 66 333 63.30841827392578 333 60 L 333 7 C 333 3.691581726074219 330.3084106445313 1 327 1 L 7 1 M 7 0 L 327 0 C 330.8659973144531 0 334 3.133998870849609 334 7 L 334 60 C 334 63.86600112915039 330.8659973144531 67 327 67 L 7 67 C 3.134002685546875 67 0 63.86600112915039 0 60 L 0 7 C 0 3.133998870849609 3.134002685546875 0 7 0 Z"/>
    </g>
    <path id="Path_67" data-name="Path 67" class="cls-13" d="M144.349,122.547h-.028a1.384,1.384,0,0,0-1.464,1.286v11.385a1.468,1.468,0,0,0,1.359,1.407,1.5,1.5,0,0,0,1.748-1.355v-9.94c11.255.726,20.129,8.982,20.129,19.061,0,7.9-5.447,14.672-13.218,17.587a10.461,10.461,0,0,1-10.413-1.814l-3.134-2.755h0l-1.854-1.629-.3-.262-5.379-4.728h0a5.838,5.838,0,0,1-2.1-4.828c.213-3.123,3.1-5.659,6.651-5.846a7.637,7.637,0,0,1,5.492,1.849h0l.407.358,2.1,1.848,2.1-1.848.407-.358h0a7.637,7.637,0,0,1,5.492-1.849c3.552.187,6.438,2.723,6.65,5.846a5.838,5.838,0,0,1-2.1,4.828h0L154.39,153l-3.856,3.389-.44.387-.326.286h0a1.455,1.455,0,0,0-.56,1.386,1.693,1.693,0,0,0,1.53,1.313,1.894,1.894,0,0,0,1.614-.578l6.993-6.127h0l.064-.057h0a8.74,8.74,0,0,0,3.04-7.083c-.292-4.729-4.66-8.568-10.04-8.825a11.472,11.472,0,0,0-8.059,2.672h0a11.472,11.472,0,0,0-8.059-2.672c-5.38.257-9.748,4.1-10.04,8.825a8.739,8.739,0,0,0,3.04,7.083h0l.065.057h0l10.445,9.181a13.948,13.948,0,0,0,13.5,2.543c9.3-3.157,15.9-11.094,15.9-20.385C169.2,132.327,158.074,122.547,144.349,122.547Z" transform="translate(40.303 475.453)"/>
    <g id="Group_219" data-name="Group 219">
      <g id="Group_169" data-name="Group 169">
        <g id="Group_146" data-name="Group 146">
          <g id="Group_145" data-name="Group 145">
            <g class="cls-20" transform="matrix(1, 0, 0, 1, 0, 0)">
              <rect id="Rectangle_199-2" data-name="Rectangle 199" class="cls-8" width="375" height="64"/>
            </g>
            <text id="Chỉnh_sửa_ảnh" data-name="Chỉnh sửa ảnh" class="cls-14" transform="translate(107 41)"><tspan x="0" y="0">Chỉnh sửa ảnh</tspan></text>
            <path id="logout" class="cls-15" d="M36.255,22.3l-5-5,2.786-2.786L43.8,24.273l-9.753,9.753-2.786-2.786,5-5H23.278V22.3Z" transform="translate(64.278 59.027) rotate(180)"/>
          </g>
        </g>
      </g>
      <text id="Lưu" class="cls-16" transform="translate(328 38)"><tspan x="0" y="0">Lưu</tspan></text>
    </g>
  </g>
</svg>
