<svg xmlns="http://www.w3.org/2000/svg" xmlns:xlink="http://www.w3.org/1999/xlink" width="375" height="1349" viewBox="0 0 375 1349">
  <defs>
    <style>
      .cls-1 {
        fill: #d2d2d2;
      }

      .cls-2 {
        clip-path: url(#clip-Topic_1);
      }

      .cls-3 {
        clip-path: url(#clip-path);
      }

      .cls-4 {
        fill: url(#pattern);
      }

      .cls-5 {
        clip-path: url(#clip-path-2);
      }

      .cls-6 {
        fill: url(#pattern-2);
      }

      .cls-7 {
        clip-path: url(#clip-path-3);
      }

      .cls-8 {
        fill: url(#pattern-3);
      }

      .cls-9 {
        clip-path: url(#clip-path-4);
      }

      .cls-10 {
        fill: url(#pattern-4);
      }

      .cls-11 {
        clip-path: url(#clip-path-5);
      }

      .cls-12 {
        fill: url(#pattern-5);
      }

      .cls-13 {
        clip-path: url(#clip-path-6);
      }

      .cls-14 {
        fill: url(#pattern-6);
      }

      .cls-15 {
        font-size: 20px;
        font-family: Comfortaa-Bold, Comfortaa;
      }

      .cls-15, .cls-19 {
        font-weight: 700;
      }

      .cls-16, .cls-20, .cls-21 {
        font-size: 16px;
      }

      .cls-16, .cls-20 {
        font-family: Inter-Regular, Inter;
      }

      .cls-17 {
        isolation: isolate;
        clip-path: url(#clip-path-7);
      }

      .cls-18 {
        fill: url(#pattern-7);
      }

      .cls-19, .cls-20, .cls-21, .cls-22 {
        fill: #fff;
      }

      .cls-19 {
        font-size: 25px;
        font-family: Inter-Bold, Inter;
      }

      .cls-21 {
        font-family: Inter-Medium, Inter;
        font-weight: 500;
      }

      .cls-23 {
        fill: url(#pattern-8);
      }

      .cls-24 {
        fill: #df5655;
      }

      .cls-25, .cls-26 {
        fill: #707070;
      }

      .cls-26 {
        fill-rule: evenodd;
      }

      .cls-27 {
        filter: url(#Rectangle_339);
      }

      .cls-28 {
        filter: url(#Rectangle_338);
      }
    </style>
    <clipPath id="clip-path">
      <rect id="Rectangle_72" data-name="Rectangle 72" class="cls-1" width="151" height="193" rx="9" transform="translate(20 1059)"/>
    </clipPath>
    <pattern id="pattern" preserveAspectRatio="none" width="100%" height="100%" viewBox="0 0 865 577">
      <image width="865" height="577" xlink:href="Topic%20-%201-image.jpg"/>
    </pattern>
    <clipPath id="clip-path-2">
      <rect id="Rectangle_69" data-name="Rectangle 69" class="cls-1" width="151" height="193" rx="9" transform="translate(204 851)"/>
    </clipPath>
    <pattern id="pattern-2" preserveAspectRatio="none" width="100%" height="100%" viewBox="0 0 971 593">
      <image width="971" height="593" xlink:href="Topic%20-%201-image2.jpg"/>
    </pattern>
    <clipPath id="clip-path-3">
      <rect id="Rectangle_66" data-name="Rectangle 66" class="cls-1" width="151" height="193" rx="9" transform="translate(20 851)"/>
    </clipPath>
    <pattern id="pattern-3" preserveAspectRatio="none" width="100%" height="100%" viewBox="0 0 2000 1331">
      <image width="2000" height="1331" xlink:href="Topic%20-%201-image3.jpg"/>
    </pattern>
    <clipPath id="clip-path-4">
      <rect id="Rectangle_63" data-name="Rectangle 63" class="cls-1" width="151" height="193" rx="9" transform="translate(204 643)"/>
    </clipPath>
    <pattern id="pattern-4" preserveAspectRatio="none" width="100%" height="100%" viewBox="0 0 1190 793">
      <image width="1190" height="793" xlink:href="Topic%20-%201-image4.jpg"/>
    </pattern>
    <clipPath id="clip-path-5">
      <rect id="Rectangle_51" data-name="Rectangle 51" class="cls-1" width="151" height="193" rx="9" transform="translate(20 643)"/>
    </clipPath>
    <pattern id="pattern-5" preserveAspectRatio="none" width="100%" height="100%" viewBox="0 0 800 533">
      <image width="800" height="533" xlink:href="Topic%20-%201-image5.jpg"/>
    </pattern>
    <clipPath id="clip-path-6">
      <rect id="Rectangle_82" data-name="Rectangle 82" class="cls-1" width="335" height="172" rx="9" transform="translate(20 333)"/>
    </clipPath>
    <pattern id="pattern-6" preserveAspectRatio="none" width="100%" height="100%" viewBox="0 0 1000 667">
      <image width="1000" height="667" xlink:href="Topic%20-%201-image6.jpg"/>
    </pattern>
    <clipPath id="clip-path-7">
      <rect id="Rectangle_46" data-name="Rectangle 46" width="335" height="172" rx="9" transform="translate(20 135)"/>
    </clipPath>
    <pattern id="pattern-7" preserveAspectRatio="none" width="100%" height="100%" viewBox="0 0 712 374">
      <image width="712" height="374" xlink:href="Topic%20-%201-image7.jpg"/>
    </pattern>
    <pattern id="pattern-8" preserveAspectRatio="xMidYMid slice" width="100%" height="100%" viewBox="0 0 1080 701">
      <image width="1080" height="701" xlink:href="Topic%20-%201-image8.jpg"/>
    </pattern>
    <filter id="Rectangle_338" x="-9" y="733" width="393" height="86" filterUnits="userSpaceOnUse">
      <feOffset dy="-2" input="SourceAlpha"/>
      <feGaussianBlur stdDeviation="3" result="blur"/>
      <feFlood flood-opacity="0.102"/>
      <feComposite operator="in" in2="blur"/>
      <feComposite in="SourceGraphic"/>
    </filter>
    <filter id="Rectangle_339" x="-9" y="733" width="393" height="86" filterUnits="userSpaceOnUse">
      <feOffset dy="-2" input="SourceAlpha"/>
      <feGaussianBlur stdDeviation="3" result="blur-2"/>
      <feFlood flood-opacity="0.102"/>
      <feComposite operator="in" in2="blur-2"/>
      <feComposite in="SourceGraphic"/>
    </filter>
    <clipPath id="clip-Topic_1">
      <rect width="375" height="1349"/>
    </clipPath>
  </defs>
  <g id="Topic_1" data-name="Topic – 1" class="cls-2">
    <rect class="cls-22" width="375" height="1349"/>
    <g id="Mask_Group_7" data-name="Mask Group 7" class="cls-3">
      <rect id="Stocksy-rom-com-love-story-Studio-Firma" class="cls-4" width="329" height="219" transform="translate(-35 1056)"/>
    </g>
    <g id="Mask_Group_6" data-name="Mask Group 6" class="cls-5">
      <rect id="eco-travel" class="cls-6" width="331" height="203" transform="translate(74 848)"/>
    </g>
    <g id="Mask_Group_5" data-name="Mask Group 5" class="cls-7">
      <rect id="_1matthew-james-thomas-as-pippin-and-kristina-reese-as-catherine-in-the-national-tour-of-pippin-credit-terry-shapiro" data-name="1matthew-james-thomas-as-pippin-and-kristina-reese-as-catherine-in-the-national-tour-of-pippin-credit-terry-shapiro" class="cls-8" width="334" height="223" transform="translate(-71 843)"/>
    </g>
    <g id="Mask_Group_4" data-name="Mask Group 4" class="cls-9">
      <rect id="tomorrowland-best-summer-music-festivals-europe" class="cls-10" width="302" height="201" transform="translate(127 635)"/>
    </g>
    <g id="Mask_Group_3" data-name="Mask Group 3" class="cls-11">
      <rect id="_800px_COLOURBOX6239851" data-name="800px_COLOURBOX6239851" class="cls-12" width="334" height="223" transform="translate(-153 633)"/>
    </g>
    <g id="Mask_Group_2" data-name="Mask Group 2" class="cls-13">
      <rect id="SHE_COFFEE_GIFT_GUIDe" data-name="SHE+COFFEE+GIFT+GUIDe" class="cls-14" width="336" height="225" transform="translate(20 302)"/>
    </g>
    <text id="Chủ_đề_nổi_bật" data-name="Chủ đề nổi bật" class="cls-15" transform="translate(20 92)"><tspan x="0" y="0">Chủ đề nổi bật</tspan></text>
    <text id="Chủ_đề_theo_sở_thích_của_bạn" data-name="Chủ đề theo sở thích của bạn" class="cls-15" transform="translate(20 573)"><tspan x="0" y="0">Chủ đề theo sở thích của bạn</tspan></text>
    <text id="Tìm_kiếm_ở_những_chủ_đề_sôi_nổi_nhất" data-name="Tìm kiếm ở những chủ đề sôi nổi nhất" class="cls-16" transform="translate(21 116)"><tspan x="0" y="0">Tìm kiếm ở những chủ đề sôi nổi nhất</tspan></text>
    <text id="Lựa_chọn_cho_mình_các_chủ_đề_sau_và_tham_gia_ngay_nào" data-name="Lựa chọn cho mình các chủ đề sau và 
tham gia ngay nào" class="cls-16" transform="translate(20 597)"><tspan x="0" y="0">Lựa chọn cho mình các chủ đề sau và </tspan><tspan x="0" y="20">tham gia ngay nào</tspan></text>
    <g id="Mask_Group_1" data-name="Mask Group 1" class="cls-17">
      <rect id="Shoor-Featured-Image-Gaming-Guide-2-min" class="cls-18" width="366" height="192" transform="translate(5 134)"/>
    </g>
    <rect id="Rectangle_153" data-name="Rectangle 153" width="335" height="172" rx="9" transform="translate(20 135)"/>
    <rect id="Rectangle_155" data-name="Rectangle 155" width="335" height="172" rx="9" transform="translate(20 333)"/>
    <rect id="Rectangle_156" data-name="Rectangle 156" width="151" height="193" rx="9" transform="translate(20 643)"/>
    <rect id="Rectangle_157" data-name="Rectangle 157" width="151" height="193" rx="9" transform="translate(204 643)"/>
    <rect id="Rectangle_158" data-name="Rectangle 158" width="151" height="193" rx="9" transform="translate(204 851)"/>
    <rect id="Rectangle_159" data-name="Rectangle 159" width="151" height="193" rx="9" transform="translate(20 851)"/>
    <rect id="Rectangle_160" data-name="Rectangle 160" width="151" height="193" rx="9" transform="translate(20 1059)"/>
    <text id="Cùng_chơi_game" data-name="Cùng chơi game" class="cls-19" transform="translate(34 242)"><tspan x="0" y="0">Cùng chơi game</tspan></text>
    <text id="Hẹn_hò_chốn_café_" data-name="Hẹn hò chốn café " class="cls-19" transform="translate(34 440)"><tspan x="0" y="0">Hẹn hò chốn café </tspan></text>
    <text id="Xem_phim" data-name="Xem phim" class="cls-19" transform="translate(35 776)"><tspan x="0" y="0">Xem phim</tspan></text>
    <text id="Music_Fes" data-name="Music Fes" class="cls-19" transform="translate(217 776)"><tspan x="0" y="0">Music Fes</tspan></text>
    <text id="Du_lịch" data-name="Du lịch" class="cls-19" transform="translate(218 984)"><tspan x="0" y="0">Du lịch</tspan></text>
    <text id="Kịch" class="cls-19" transform="translate(34 984)"><tspan x="0" y="0">Kịch</tspan></text>
    <text id="Văn_học" data-name="Văn học" class="cls-19" transform="translate(34 1192)"><tspan x="0" y="0">Văn học</tspan></text>
    <text id="Đắm_chìm_vào_phim_ảnh_nào" data-name="Đắm chìm vào 
phim ảnh nào" class="cls-20" transform="translate(35 803)"><tspan x="0" y="0">Đắm chìm vào </tspan><tspan x="0" y="20">phim ảnh nào</tspan></text>
    <text id="Tận_hưởng_không_khí_âm_nhạc" data-name="Tận hưởng không
khí âm nhạc" class="cls-20" transform="translate(217 803)"><tspan x="0" y="0">Tận hưởng không</tspan><tspan x="0" y="20">khí âm nhạc</tspan></text>
    <text id="Tứ_phương_phiêu_lưu" data-name="Tứ phương phiêu
lưu" class="cls-20" transform="translate(218 1011)"><tspan x="0" y="0">Tứ phương phiêu</tspan><tspan x="0" y="20">lưu</tspan></text>
    <text id="Romeo_và_Juliet" data-name="Romeo và Juliet" class="cls-20" transform="translate(34 1011)"><tspan x="0" y="0">Romeo và Juliet</tspan></text>
    <text id="Ai_đó_lại_thích_Tolkien_thì_sao_" data-name="Ai đó lại thích
Tolkien thì sao?" class="cls-20" transform="translate(34 1219)"><tspan x="0" y="0">Ai đó lại thích</tspan><tspan x="0" y="20">Tolkien thì sao?</tspan></text>
    <text id="Gặp_gỡ_người_đồng_đội_khả_ái_giật_ngay_top_server" data-name="Gặp gỡ người đồng đội khả ái, giật
ngay top server" class="cls-21" transform="translate(34 269)"><tspan x="0" y="0">Gặp gỡ người đồng đội khả ái, giật</tspan><tspan x="0" y="20">ngay top server</tspan></text>
    <text id="Nàng_cappuccino_chàng_thì_espresso_cho_mùa_đông_thêm_nồng_thắm" data-name="Nàng cappuccino, chàng thì espresso
cho mùa đông thêm nồng thắm" class="cls-21" transform="translate(34 467)"><tspan x="0" y="0">Nàng cappuccino, chàng thì espresso</tspan><tspan x="0" y="20">cho mùa đông thêm nồng thắm</tspan></text>
    <g id="Group_47" data-name="Group 47">
      <rect id="Rectangle_151" data-name="Rectangle 151" class="cls-22" width="375" height="66" transform="translate(375 65) rotate(180)"/>
      <circle id="Ellipse_50" data-name="Ellipse 50" class="cls-23" cx="17" cy="17" r="17" transform="translate(321 22)"/>
      <path id="Path_11" data-name="Path 11" class="cls-24" d="M141.5,122.547h-.023a1.166,1.166,0,0,0-1.234,1.084v9.6a1.237,1.237,0,0,0,1.145,1.186,1.26,1.26,0,0,0,1.473-1.142v-8.379c9.487.612,16.968,7.571,16.968,16.067,0,6.656-4.591,12.368-11.142,14.824a8.818,8.818,0,0,1-8.777-1.529l-2.642-2.322h0l-1.563-1.373-.251-.221-4.534-3.986h0a4.921,4.921,0,0,1-1.773-4.069c.179-2.632,2.611-4.77,5.606-4.927a6.438,6.438,0,0,1,4.629,1.558h0l.343.3,1.773,1.558,1.773-1.558.343-.3h0a6.438,6.438,0,0,1,4.629-1.558c2.994.158,5.426,2.3,5.606,4.927a4.921,4.921,0,0,1-1.773,4.069h0l-2.116,1.86-3.25,2.857-.371.326-.275.241h0a1.227,1.227,0,0,0-.472,1.168,1.427,1.427,0,0,0,1.29,1.107,1.6,1.6,0,0,0,1.361-.487l5.894-5.164h0l.054-.048h0a7.367,7.367,0,0,0,2.563-5.971c-.247-3.987-3.928-7.223-8.463-7.439a9.67,9.67,0,0,0-6.793,2.253h0a9.67,9.67,0,0,0-6.793-2.253c-4.535.217-8.217,3.453-8.463,7.439a7.367,7.367,0,0,0,2.563,5.971h0l.054.048h0l8.8,7.739a11.757,11.757,0,0,0,11.379,2.144c7.843-2.661,13.406-9.351,13.406-17.183C162.451,130.791,153.073,122.547,141.5,122.547Z" transform="translate(-106.232 -100.547)"/>
    </g>
    <g class="cls-28" transform="matrix(1, 0, 0, 1, 0, 0)">
      <rect id="Rectangle_338-2" data-name="Rectangle 338" class="cls-22" width="375" height="68" transform="translate(0 744)"/>
    </g>
    <g class="cls-27" transform="matrix(1, 0, 0, 1, 0, 0)">
      <rect id="Rectangle_339-2" data-name="Rectangle 339" class="cls-22" width="375" height="68" transform="translate(0 744)"/>
    </g>
    <path id="user" class="cls-25" d="M20.27,20.27A7.135,7.135,0,1,1,27.4,13.135,7.135,7.135,0,0,1,20.27,20.27Zm0,5.351c5.683,0,10.782,1.018,14.27,5.464V34.54H6V31.085C9.488,26.638,14.587,25.621,20.27,25.621Z" transform="translate(313.46 758.854)"/>
    <path id="heart" class="cls-26" d="M21.406,36.056C17.264,35.154,4.5,28.091,4.5,15.392A9.392,9.392,0,0,1,21.406,9.757a9.392,9.392,0,0,1,16.906,5.635C38.313,28.091,25.549,35.154,21.406,36.056Z" transform="translate(22.5 758.931)"/>
    <path id="star" class="cls-25" d="M20.443,29.547l-9.852,5.16,1.881-10.928L4.5,16.038l11.016-1.594L20.443,4.5l4.927,9.943,11.016,1.594-7.971,7.742,1.881,10.928Z" transform="translate(166.818 758.688)"/>
    <path id="commenting" class="cls-25" d="M7.764,33.876V27.091A13.357,13.357,0,0,1,4.5,18.372C4.5,10.711,11.077,4.5,19.188,4.5s14.688,6.211,14.688,13.872S27.3,32.244,19.188,32.244a15.263,15.263,0,0,1-7.723-2.069Zm11.424-4.9c6.309,0,11.424-4.749,11.424-10.608S25.5,7.764,19.188,7.764,7.764,12.513,7.764,18.372,12.879,28.98,19.188,28.98Zm-4.08-8.16a2.448,2.448,0,1,1,2.448-2.448A2.448,2.448,0,0,1,15.108,20.82Zm8.16,0a2.448,2.448,0,1,1,2.448-2.448A2.448,2.448,0,0,1,23.268,20.82Z" transform="translate(243.32 759.937)"/>
    <g id="Group_234" data-name="Group 234" transform="translate(98.397 763.014)">
      <path id="Polygon_44" data-name="Polygon 44" class="cls-24" d="M7.26,2.714a2,2,0,0,1,3.392,0L16,11.269a2,2,0,0,1-1.7,3.06H3.608a2,2,0,0,1-1.7-3.06Z" transform="translate(4.478)"/>
      <rect id="Rectangle_138" data-name="Rectangle 138" class="cls-24" width="12.538" height="12.538" rx="4" transform="translate(0 17.911)"/>
      <ellipse id="Ellipse_32" data-name="Ellipse 32" class="cls-24" cx="6.717" cy="6.717" rx="6.717" ry="6.717" transform="translate(15.225 17.016)"/>
    </g>
  </g>
</svg>
