<svg xmlns="http://www.w3.org/2000/svg" width="76" height="76" viewBox="0 0 76 76">
  <defs>
    <style>
      .cls-1, .cls-4 {
        fill: none;
      }

      .cls-1 {
        stroke: #589de2;
        stroke-width: 5px;
      }

      .cls-2 {
        fill: #589de2;
        fill-rule: evenodd;
      }

      .cls-3 {
        stroke: none;
      }
    </style>
  </defs>
  <g id="Group_352" data-name="Group 352" transform="translate(-258 -682)">
    <g id="Ellipse_40" data-name="Ellipse 40" class="cls-1" transform="translate(258 682)">
      <circle class="cls-3" cx="38" cy="38" r="38"/>
      <circle class="cls-4" cx="38" cy="38" r="35.5"/>
    </g>
    <path id="video" class="cls-2" d="M33.194,17.475l13.114-4.963a2.323,2.323,0,0,1,3.145,2.174V31.2a2.323,2.323,0,0,1-3.137,2.174L33.194,28.453v3.773a4.645,4.645,0,0,1-4.645,4.645H7.645A4.645,4.645,0,0,1,3,32.226V13.645A4.645,4.645,0,0,1,7.645,9h20.9a4.645,4.645,0,0,1,4.645,4.645v3.831Z" transform="translate(270 697)"/>
  </g>
</svg>
