<svg xmlns="http://www.w3.org/2000/svg" width="76" height="76" viewBox="0 0 76 76">
  <defs>
    <style>
      .cls-1 {
        fill: #589de2;
      }

      .cls-2 {
        fill: #fff;
        fill-rule: evenodd;
      }

      .cls-3, .cls-4 {
        stroke: none;
      }

      .cls-4 {
        fill: #589de2;
      }
    </style>
  </defs>
  <g id="Group_354" data-name="Group 354" transform="translate(-258 -682)">
    <g id="Group_353" data-name="Group 353">
      <g id="Path_10" data-name="Path 10" class="cls-1" transform="translate(258 682)">
        <path class="cls-3" d="M 38 73.5 C 33.20643615722656 73.5 28.55757713317871 72.56172943115234 24.18256378173828 70.71125793457031 C 19.95555305480957 68.92337799072266 16.15877723693848 66.36334991455078 12.89771747589111 63.1022834777832 C 9.63664722442627 59.84122467041016 7.076623439788818 56.04444885253906 5.288741111755371 51.81743621826172 C 3.438270568847656 47.44242477416992 2.5 42.79356384277344 2.5 38 C 2.5 33.20643615722656 3.438270568847656 28.55757713317871 5.288741111755371 24.18256378173828 C 7.076623439788818 19.95555305480957 9.63664722442627 16.15877723693848 12.89771747589111 12.89771747589111 C 16.15877723693848 9.63664722442627 19.95555305480957 7.076623439788818 24.18256378173828 5.288741111755371 C 28.55757713317871 3.438270568847656 33.20643615722656 2.5 38 2.5 C 42.79356384277344 2.5 47.44242477416992 3.438270568847656 51.81743621826172 5.288741111755371 C 56.04444885253906 7.076623439788818 59.84122467041016 9.63664722442627 63.1022834777832 12.89771747589111 C 66.36334991455078 16.15877723693848 68.92337799072266 19.95555305480957 70.71125793457031 24.18256378173828 C 72.56172943115234 28.55757713317871 73.5 33.20643615722656 73.5 38 C 73.5 42.79356384277344 72.56172943115234 47.44242477416992 70.71125793457031 51.81743621826172 C 68.92337799072266 56.04444885253906 66.36334991455078 59.84122467041016 63.1022834777832 63.1022834777832 C 59.84122467041016 66.36334991455078 56.04444885253906 68.92337799072266 51.81743621826172 70.71125793457031 C 47.44242477416992 72.56172943115234 42.79356384277344 73.5 38 73.5 Z"/>
        <path class="cls-4" d="M 38 5 C 33.54282760620117 5 29.22163009643555 5.871826171875 25.15644454956055 7.591255187988281 C 21.2274284362793 9.253082275390625 17.69775772094727 11.63320159912109 14.66547012329102 14.66547012329102 C 11.63320159912109 17.69775772094727 9.253082275390625 21.2274284362793 7.591255187988281 25.15644454956055 C 5.871826171875 29.22163009643555 5 33.54282760620117 5 38 C 5 42.45717239379883 5.871826171875 46.77837371826172 7.591255187988281 50.84355926513672 C 9.253082275390625 54.7725715637207 11.63320159912109 58.30224227905273 14.66547012329102 61.33452987670898 C 17.69775772094727 64.36679840087891 21.2274284362793 66.74691772460938 25.15644454956055 68.40874481201172 C 29.22163009643555 70.128173828125 33.54282760620117 71 38 71 C 42.45717239379883 71 46.77837371826172 70.128173828125 50.84355926513672 68.40874481201172 C 54.7725715637207 66.74691772460938 58.30224227905273 64.36679840087891 61.33452987670898 61.33452987670898 C 64.36679840087891 58.30224227905273 66.74691772460938 54.7725715637207 68.40874481201172 50.84355926513672 C 70.128173828125 46.77837371826172 71 42.45717239379883 71 38 C 71 33.54282760620117 70.128173828125 29.22163009643555 68.40874481201172 25.15644454956055 C 66.74691772460938 21.2274284362793 64.36679840087891 17.69775772094727 61.33452987670898 14.66547012329102 C 58.30224227905273 11.63320159912109 54.7725715637207 9.253082275390625 50.84355926513672 7.591255187988281 C 46.77837371826172 5.871826171875 42.45717239379883 5 38 5 M 38 0 C 58.98681640625 0 76 17.01318740844727 76 38 C 76 58.98681640625 58.98681640625 76 38 76 C 17.01318740844727 76 0 58.98681640625 0 38 C 0 17.01318740844727 17.01318740844727 0 38 0 Z"/>
      </g>
      <path id="video" class="cls-2" d="M33.194,17.475l13.114-4.963a2.323,2.323,0,0,1,3.145,2.174V31.2a2.323,2.323,0,0,1-3.137,2.174L33.194,28.453v3.773a4.645,4.645,0,0,1-4.645,4.645H7.645A4.645,4.645,0,0,1,3,32.226V13.645A4.645,4.645,0,0,1,7.645,9h20.9a4.645,4.645,0,0,1,4.645,4.645v3.831Z" transform="translate(270 697)"/>
    </g>
  </g>
</svg>
