<svg xmlns="http://www.w3.org/2000/svg" width="22.351" height="22.351" viewBox="0 0 22.351 22.351">
  <defs>
    <style>
      .cls-1 {
        fill: #589de2;
      }
    </style>
  </defs>
  <path id="check-circle-o" class="cls-1" d="M17.039,9.968,10.9,16.109a.915.915,0,0,1-1.31,0L5.311,11.83a.915.915,0,0,1,0-1.31L6.8,9.036a.915.915,0,0,1,1.31,0l2.139,2.139,4-4a.915.915,0,0,1,1.31,0L17.04,8.658a.915.915,0,0,1,0,1.31Zm2.052,1.208A7.735,7.735,0,0,0,18.029,7.2a7.9,7.9,0,0,0-2.881-2.881,7.729,7.729,0,0,0-3.972-1.062A7.745,7.745,0,0,0,7.2,4.322,7.884,7.884,0,0,0,4.322,7.2a7.74,7.74,0,0,0-1.062,3.972,7.739,7.739,0,0,0,1.062,3.972A7.885,7.885,0,0,0,7.2,18.029a7.745,7.745,0,0,0,3.972,1.062,7.729,7.729,0,0,0,3.972-1.062,7.9,7.9,0,0,0,2.881-2.881,7.735,7.735,0,0,0,1.062-3.972Zm3.259,0a10.933,10.933,0,0,1-1.5,5.609,11.124,11.124,0,0,1-4.067,4.067,10.933,10.933,0,0,1-5.609,1.5,10.933,10.933,0,0,1-5.609-1.5A11.124,11.124,0,0,1,1.5,16.785,10.933,10.933,0,0,1,0,11.175,10.933,10.933,0,0,1,1.5,5.566,11.124,11.124,0,0,1,5.566,1.5,10.933,10.933,0,0,1,11.175,0a10.933,10.933,0,0,1,5.609,1.5,11.124,11.124,0,0,1,4.067,4.067A10.933,10.933,0,0,1,22.351,11.175Z"/>
</svg>
