<svg xmlns="http://www.w3.org/2000/svg" width="32.116" height="32.116" viewBox="0 0 32.116 32.116">
  <defs>
    <style>
      .cls-1 {
        fill: #df5655;
      }
    </style>
  </defs>
  <path id="commenting" class="cls-1" d="M8.068,36.616V29.2A14.6,14.6,0,0,1,4.5,19.666C4.5,11.291,11.69,4.5,20.558,4.5s16.058,6.791,16.058,15.166-7.19,15.166-16.058,15.166a16.686,16.686,0,0,1-8.443-2.262Zm12.49-5.353c6.9,0,12.49-5.192,12.49-11.6s-5.592-11.6-12.49-11.6-12.49,5.192-12.49,11.6S13.66,31.263,20.558,31.263ZM16.1,22.342a2.676,2.676,0,1,1,2.676-2.676A2.676,2.676,0,0,1,16.1,22.342Zm8.921,0a2.676,2.676,0,1,1,2.676-2.676A2.676,2.676,0,0,1,25.019,22.342Z" transform="translate(-4.5 -4.5)"/>
</svg>
